<!--?xml version="1.0" encoding="utf-8"?-->
<svg version="1.1" id="Layer_1" xmlns="http://www.w3.org/2000/svg" xmlns:xlink="http://www.w3.org/1999/xlink" x="0px" y="0px" viewBox="0 0 787 105.5" style="enable-background:new 0 0 787 105.5;" xml:space="preserve">
<style type="text/css">
	.st0{fill:#19709B;}
</style>
<g>
	<path class="st0" d="M101.4,69c-3.3,4.9-6.7,9.7-10.2,14.4c-1.8,2.4-3.6,4.7-5.6,7c-1,1.1-2.2,2.3-3.3,3.4c-1.1,1.1-2.4,2-3.6,3.1
		c-10.2,7.8-24.1,10.1-36.7,7.6c-12.7-2.6-24.5-10-32.4-20.9c-7.9-10.8-11.1-25-9-38.4C1.7,38.5,4,31.9,7.6,26
		c3.6-5.9,8.3-11,13.8-15.2c11.1-8.3,25.5-12,39.4-10.2c6.9,0.9,13.7,3.2,19.7,6.7c3,1.8,5.9,3.8,8.5,6.1c2.6,2.3,5.1,5,6.9,7
		l23.5,26.1L142.7,73c2.1,2.4,3.6,4,5.3,5.6c1.8,1.6,3.7,2.9,5.7,4.2c4,2.4,8.6,4,13.2,4.8c9.4,1.6,19.3-0.6,27.2-6.1
		c7.9-5.5,13.7-14,15.7-23.7c2.1-9.6,0.2-20.1-5.1-28.7c-5.2-8.6-14-15.3-24.1-18.2c-10-3.1-21.4-2.3-30.6,3.2
		c-1.1,0.8-2.3,1.4-3.3,2.2c-1,0.9-2.1,1.7-3.1,2.6l-6,6.4l-12.1,12.6l0,0c-0.4,0.4-1.1,0.4-1.5,0c-0.4-0.4-0.4-0.9-0.1-1.4
		l10.4-14.4l5.3-7.2c1-1.2,2.1-2.3,3.2-3.5c1.1-1.1,2.4-2.1,3.6-3.1c10.2-7.8,24.1-10.1,36.7-7.5c12.7,2.6,24.5,10,32.3,20.9
		c7.9,10.8,11.2,25,9,38.4c-1,6.7-3.4,13.3-6.9,19.2c-3.5,5.9-8.3,11.1-13.8,15.2c-11.1,8.3-25.5,12.1-39.4,10.2
		c-6.9-0.9-13.7-3.2-19.7-6.7c-3-1.8-5.9-3.8-8.5-6.1c-2.6-2.3-5.1-5-6.9-7l-23.5-26.1L82.4,32.6c-2.1-2.4-3.6-4-5.3-5.6
		c-1.8-1.6-3.7-2.9-5.7-4.2c-4-2.4-8.6-4-13.2-4.8c-9.4-1.6-19.3,0.6-27.2,6.1c-7.9,5.5-13.7,14-15.7,23.7c-2.1,9.6-0.3,20.1,5,28.6
		c5.2,8.6,14,15.3,24.1,18.2c10,3.1,21.4,2.2,30.7-3.3c1.1-0.7,2.3-1.4,3.4-2.2l3.2-2.6c2.1-2,4.1-4,6.2-6.1
		c4.1-4.1,8.1-8.4,12-12.8c0.4-0.4,1-0.5,1.5-0.1C101.6,68,101.7,68.6,101.4,69z"></path>
	<g>
		<path class="st0" d="M312,25v55.4h-10.5l-27.6-33.6v33.6h-12.7V25h10.6l27.6,33.6V25H312z"></path>
		<path class="st0" d="M326.8,25h12.8v55.4h-12.8V25z"></path>
		<path class="st0" d="M350,75l4.4-9.7c4.7,3.4,11.6,5.8,18.3,5.8c7.6,0,10.7-2.5,10.7-5.9c0-10.4-32.2-3.2-32.2-23.8
			c0-9.4,7.6-17.3,23.4-17.3c7,0,14.1,1.7,19.2,4.9l-4,9.7c-5.1-2.9-10.5-4.4-15.4-4.4c-7.6,0-10.5,2.8-10.5,6.3
			c0,10.2,32.2,3.2,32.2,23.5c0,9.3-7.7,17.2-23.5,17.2C363.8,81.4,354.9,78.8,350,75z"></path>
		<path class="st0" d="M402.1,75l4.4-9.7c4.7,3.4,11.6,5.8,18.3,5.8c7.6,0,10.7-2.5,10.7-5.9c0-10.4-32.2-3.2-32.2-23.8
			c0-9.4,7.6-17.3,23.4-17.3c7,0,14.1,1.7,19.2,4.9l-4,9.7c-5.1-2.9-10.5-4.4-15.4-4.4c-7.6,0-10.5,2.8-10.5,6.3
			c0,10.2,32.2,3.2,32.2,23.5c0,9.3-7.7,17.2-23.5,17.2C415.9,81.4,407.1,78.8,402.1,75z"></path>
		<path class="st0" d="M484,60.8v19.6h-12.8V60.7L449.8,25h13.6l14.8,24.6L493,25h12.6L484,60.8z"></path>
		<path class="st0" d="M507,75l4.4-9.7c4.7,3.4,11.6,5.8,18.3,5.8c7.6,0,10.7-2.5,10.7-5.9c0-10.4-32.2-3.2-32.2-23.8
			c0-9.4,7.6-17.3,23.4-17.3c7,0,14.1,1.7,19.2,4.9l-4,9.7c-5.1-2.9-10.5-4.4-15.4-4.4c-7.6,0-10.5,2.8-10.5,6.3
			c0,10.2,32.2,3.2,32.2,23.5c0,9.3-7.7,17.2-23.5,17.2C520.8,81.4,511.9,78.8,507,75z"></path>
		<path class="st0" d="M574.2,35.5h-17.7V25h48.3v10.5H587v45h-12.8V35.5z"></path>
		<path class="st0" d="M656.2,70.2v10.3h-42.9V25h41.9v10.3H626v12h25.7v10H626v12.8H656.2z"></path>
		<path class="st0" d="M718.4,80.4l-0.1-33.3L702,74.6h-5.8L680,47.9v32.5h-12V25h10.6l20.7,34.4L719.8,25h10.5l0.2,55.4H718.4z"></path>
		<path class="st0" d="M740.9,75l4.4-9.7c4.7,3.4,11.6,5.8,18.3,5.8c7.6,0,10.7-2.5,10.7-5.9c0-10.4-32.2-3.2-32.2-23.8
			c0-9.4,7.6-17.3,23.4-17.3c7,0,14.1,1.7,19.2,4.9l-4,9.7c-5.1-2.9-10.5-4.4-15.4-4.4c-7.6,0-10.5,2.8-10.5,6.3
			c0,10.2,32.2,3.2,32.2,23.5c0,9.3-7.7,17.2-23.5,17.2C754.7,81.4,745.8,78.8,740.9,75z"></path>
	</g>
</g>
</svg>